<svg xmlns="http://www.w3.org/2000/svg" width="500" height="500" viewBox="0 -0.5 25 25">
	<path d="M0 -0.5h25v25H0z" fill="none" />
	<path fill="#fff" d="M4.32 4.75a1.25 1.25 0 0 0 0 2.5h.01a1.25 1.25 0 1 0 0-2.5zm3.99.5a.75.75 0 1 0 0 1.5h12a.75.75 0 1 0 0-1.5zm0 12a.75.75 0 0 0 0 1.5h12a.75.75 0 1 0 0-1.5zM7.56 12a.75.75 0 0 1 .75-.75h12a.75.75 0 1 1 0 1.5h-12a.75.75 0 0 1-.75-.75m-4.49 0c0-.69.56-1.25 1.25-1.25h.01a1.25 1.25 0 1 1 0 2.5h-.01c-.69 0-1.25-.56-1.25-1.25m1.25 4.75a1.25 1.25 0 1 0 0 2.5h.01a1.25 1.25 0 1 0 0-2.5z" />
</svg>
